 <svg  version="1.0" xmlns="http://www.w3.org/2000/svg"  width="649.000000pt" height="866.000000pt" viewBox="0 0 649.000000 866.000000"  preserveAspectRatio="xMidYMid meet">  <g transform="translate(0.000000,866.000000) scale(0.100000,-0.100000)" fill="#efeff1" stroke="none"> <path d="M2208 8113 c-30 -8 -20 -19 17 -20 24 -1 35 3 35 13 0 14 -18 16 -52 7z"/> <path d="M2300 8097 c35 -15 34 -15 20 -32 -10 -13 -9 -15 8 -15 11 0 22 6 25 14 8 19 -24 46 -54 45 l-24 0 25 -12z"/> <path d="M2090 8085 c-14 -7 -43 -20 -65 -30 -80 -35 -105 -52 -194 -132 -25 -23 -65 -59 -88 -80 -44 -39 -58 -74 -41 -106 7 -13 13 -15 22 -8 7 6 17 6 26 1 8 -6 20 -10 25 -10 6 0 -7 10 -27 23 l-37 22 27 31 c25 29 57 49 74 46 4 -1 5 4 2 11 -5 14 97 107 117 107 8 0 8 -4 -1 -15 -8 -9 22 0 66 21 43 20 93 41 109 47 75 25 85 30 85 38 0 5 -5 9 -11 9 -5 0 -7 5 -4 10 13 21 -24 9 -60 -20 -21 -16 -55 -35 -75 -40 -21 -6 -41 -17 -44 -25 -6 -17 -56 -21 -56 -5 0 6 9 10 20 10 10 0 33 14 50 30 17 17 40 30 51 30 11 0 37 11 57 25 27 19 32 25 17 24 -11 0 -31 -7 -45 -14z"/> <path d="M2523 8092 c-13 -2 -23 -8 -23 -13 0 -5 -5 -9 -11 -9 -5 0 -7 5 -3 12 5 8 -7 10 -45 5 -99 -12 -81 -33 31 -36 37 -1 46 2 42 13 -4 10 3 16 23 18 15 2 24 5 18 9 -5 3 -20 3 -32 1z"/> <path d="M2599 8065 c-1 -5 -1 -13 0 -17 0 -5 -3 -8 -9 -8 -5 0 -10 5 -10 10 0 17 -14 11 -28 -10 -12 -20 -11 -21 39 -14 35 5 50 4 46 -3 -4 -6 -1 -15 6 -20 24 -19 135 -46 161 -39 19 5 26 3 26 -9 0 -10 -10 -15 -27 -15 -47 0 -8 -24 50 -31 l52 -6 -33 -14 c-42 -17 -36 -33 14 -36 31 -1 34 0 14 6 l-25 7 35 19 c28 14 32 15 22 3 -11 -14 -8 -15 30 -6 23 5 54 6 68 2 23 -7 22 -8 -15 -14 l-40 -7 49 -2 c53 -1 53 -8 1 -36 -23 -13 -25 -16 -7 -12 12 3 36 -2 53 -10 32 -16 56 -8 26 8 -10 6 -17 22 -17 39 0 16 -7 35 -14 42 -8 7 -37 34 -63 59 -26 25 -63 51 -82 57 -41 14 -54 15 -47 3 3 -5 -4 -11 -17 -15 -15 -4 -27 0 -38 13 -24 29 -96 50 -133 40 -33 -10 -67 -3 -78 15 -5 6 -8 7 -9 1z m177 -50 c-4 -11 1 -15 19 -15 14 0 25 -4 25 -10 0 -5 -12 -10 -26 -10 -40 0 -135 30 -129 41 4 5 31 9 62 9 45 0 54 -3 49 -15z m104 -40 c0 -9 6 -12 17 -8 11 4 14 3 9 -5 -5 -8 1 -12 18 -12 14 0 27 -4 31 -10 3 -5 13 -7 23 -4 14 5 14 3 -2 -10 -19 -15 -19 -16 10 -17 l29 -1 -29 -10 c-18 -7 -31 -7 -35 -1 -3 6 -23 13 -43 17 -25 5 -38 12 -38 23 0 13 -3 13 -15 3 -12 -10 -15 -9 -15 7 0 19 18 43 32 43 4 0 8 -7 8 -15z"/> <path d="M2255 8013 c-31 -3 -108 -21 -135 -30 -12 -4 -11 -7 5 -13 12 -4 48 1 87 11 37 11 77 19 88 19 12 0 18 5 15 10 -3 6 -12 9 -18 9 -7 -1 -25 -4 -42 -6z"/> <path d="M2340 8008 c0 -5 6 -9 13 -10 24 -3 52 -5 92 -7 l40 -1 -28 -19 c-17 -11 -24 -21 -18 -25 13 -8 51 15 51 31 0 15 36 18 45 4 3 -5 -3 -12 -12 -14 -10 -2 -6 -3 10 -2 15 1 27 -1 27 -5 0 -11 84 -29 100 -20 10 6 -1 11 -37 16 -28 3 -60 14 -70 24 -14 12 -48 20 -116 26 -53 5 -97 6 -97 2z"/> <path d="M2040 7950 c-8 -5 -10 -10 -4 -10 6 0 14 -13 18 -30 10 -53 34 -29 27 28 -4 26 35 9 64 -28 32 -41 45 -49 45 -26 0 8 8 17 18 19 13 4 11 5 -5 6 -13 0 -22 6 -20 12 2 12 -67 39 -103 39 -14 0 -32 -5 -40 -10z"/> <path d="M2206 7950 c6 -6 42 -12 80 -14 38 -3 89 -7 114 -11 71 -10 25 12 -51 24 -85 14 -156 14 -143 1z"/> <path d="M2683 7926 c5 -16 64 -25 64 -10 0 7 -15 14 -34 16 -20 2 -32 0 -30 -6z"/> <path d="M1923 7913 c-21 -8 -15 -30 10 -37 36 -10 41 -7 24 12 -10 10 -14 22 -10 25 7 8 -6 8 -24 0z"/> <path d="M2610 7910 c8 -5 28 -10 44 -10 39 0 30 6 -19 13 -27 4 -35 3 -25 -3z"/> <path d="M2280 7900 c0 -6 5 -10 10 -10 6 0 10 -9 10 -20 0 -15 6 -19 30 -17 26 2 28 4 14 14 -9 7 -13 17 -8 25 4 7 4 10 0 6 -5 -4 -19 -3 -32 2 -15 6 -24 6 -24 0z"/> <path d="M1875 7878 c8 -27 22 -44 30 -37 7 7 -18 59 -28 59 -5 0 -5 -10 -2 -22z"/> <path d="M1995 7875 c0 -13 8 -34 18 -45 9 -11 17 -28 17 -38 0 -9 10 -23 23 -31 21 -13 21 -13 6 5 -9 10 -19 31 -23 47 -3 15 -11 27 -17 27 -8 0 -8 4 0 13 8 11 7 18 -7 30 -17 15 -18 15 -17 -8z"/> <path d="M2497 7859 c-13 -34 -20 -41 -37 -36 -18 4 -19 3 -9 -9 17 -21 49 3 65 49 18 51 1 47 -19 -4z"/> <path d="M3132 7880 c14 -22 24 -19 15 5 -4 8 -11 15 -17 15 -6 0 -6 -7 2 -20z"/> <path d="M2365 7880 c3 -5 12 -10 20 -10 7 0 15 -4 17 -10 2 -6 16 -6 40 2 51 15 38 28 -28 28 -34 0 -53 -4 -49 -10z"/> <path d="M2734 7879 c-3 -5 6 -9 20 -9 31 0 34 6 6 13 -11 3 -23 1 -26 -4z"/> <path d="M1842 7859 c-15 -24 -15 -29 0 -29 6 0 8 3 5 7 -4 3 1 11 10 18 9 7 12 15 7 18 -6 3 -15 -3 -22 -14z"/> <path d="M2537 7866 c-4 -10 -5 -21 -2 -24 9 -9 17 6 13 25 -3 17 -4 17 -11 -1z"/> <path d="M2631 7853 c-13 -28 -13 -28 8 -9 22 20 27 36 13 36 -5 0 -14 -12 -21 -27z"/> <path d="M2686 7855 c-3 -9 0 -15 8 -15 7 0 13 7 13 15 0 8 -4 15 -8 15 -4 0 -9 -7 -13 -15z"/> <path d="M2200 7845 c0 -15 48 -40 58 -30 3 3 1 5 -4 5 -6 0 -20 9 -32 20 -18 17 -22 18 -22 5z"/> <path d="M2725 7840 c3 -6 23 -10 43 -10 34 -1 35 -2 19 -14 -21 -16 -14 -22 28 -21 25 0 31 5 33 25 3 25 1 26 -63 28 -41 1 -64 -2 -60 -8z"/> <path d="M2983 7840 c-13 -5 -23 -14 -23 -20 0 -6 12 -4 30 5 45 23 39 33 -7 15z"/> <path d="M2116 7822 c-11 -18 87 -92 102 -77 9 8 -35 45 -54 45 -7 0 -19 9 -27 21 -8 11 -17 16 -21 11z"/> <path d="M2884 7788 c5 -34 3 -48 -9 -58 -9 -8 -15 -8 -15 -2 0 14 -45 -5 -85 -35 -37 -28 -17 -30 27 -3 21 13 53 20 88 21 30 1 45 4 33 6 -13 2 -23 9 -23 14 0 8 6 10 43 13 15 1 36 26 37 44 0 8 -8 10 -23 7 -15 -4 -32 1 -51 16 l-29 23 7 -46z"/> <path d="M2390 7810 c19 -13 30 -13 30 0 0 6 -10 10 -22 10 -19 0 -20 -2 -8 -10z"/> <path d="M2585 7810 c-8 -13 15 -13 35 0 12 8 11 10 -7 10 -12 0 -25 -4 -28 -10z"/> <path d="M2713 7803 c9 -2 25 -2 35 0 9 3 1 5 -18 5 -19 0 -27 -2 -17 -5z"/> <path d="M2285 7795 c23 -8 85 -10 85 -3 0 4 -21 8 -47 7 -27 0 -43 -2 -38 -4z"/> <path d="M1770 7780 c-8 -5 -12 -10 -10 -12 36 -23 49 -26 53 -14 3 8 0 19 -6 25 -13 13 -18 13 -37 1z"/> <path d="M2583 7778 c-18 -6 -33 -17 -33 -24 0 -20 26 -17 47 5 10 10 27 21 38 24 20 5 20 5 0 5 -11 0 -35 -5 -52 -10z"/> <path d="M2992 7778 c6 -18 25 -20 31 -3 5 10 0 15 -14 15 -12 0 -19 -5 -17 -12z"/> <path d="M1609 7725 c-45 -44 -55 -60 -51 -80 5 -29 22 -34 22 -7 0 19 44 65 71 75 15 5 33 67 20 67 -4 0 -31 -25 -62 -55z"/> <path d="M2239 7766 c7 -8 13 -29 13 -46 1 -21 4 -27 9 -18 13 19 11 52 -3 66 -17 17 -33 15 -19 -2z"/> <path d="M2680 7761 c-13 -11 -28 -17 -32 -15 -4 3 -8 0 -8 -5 0 -15 16 -14 53 6 18 9 46 20 62 24 29 7 28 7 -10 8 -25 0 -49 -7 -65 -18z"/> <path d="M2798 7756 c-26 -13 -45 -26 -41 -30 4 -4 -3 -9 -15 -13 -12 -3 -22 -9 -22 -14 0 -16 19 -9 52 20 18 15 38 26 43 25 6 -2 16 5 23 16 7 11 11 20 10 19 -2 0 -24 -11 -50 -23z"/> <path d="M3014 7757 c-17 -6 -41 -25 -54 -44 -12 -18 -27 -33 -32 -33 -6 0 -21 -9 -34 -19 l-25 -20 26 3 c14 2 31 8 37 14 8 8 15 7 24 -6 16 -22 32 -7 17 17 -15 24 0 52 19 33 16 -16 28 -15 28 3 0 8 -4 15 -10 15 -18 0 -11 20 8 20 9 1 28 7 42 15 22 12 22 14 5 13 -11 0 -34 -5 -51 -11z"/> <path d="M3126 7755 c-20 -20 -20 -26 -1 -19 8 4 15 1 15 -5 0 -6 -6 -11 -12 -11 -17 0 12 -20 29 -20 8 0 9 9 3 31 -12 41 -15 43 -34 24z"/> <path d="M2296 7744 c-6 -16 36 -18 69 -4 24 10 21 12 -27 15 -24 1 -39 -3 -42 -11z"/> <path d="M2116 7741 c5 -5 20 -12 34 -15 l25 -7 -25 15 c-28 17 -50 21 -34 7z"/> <path d="M2510 7720 c0 -13 28 -25 38 -16 3 4 0 11 -8 16 -20 13 -30 12 -30 0z"/> <path d="M3056 7711 c-3 -5 2 -15 11 -22 12 -10 14 -10 9 -1 -10 17 9 15 28 -3 9 -10 17 -11 21 -5 3 6 -1 13 -9 16 -9 3 -13 10 -10 15 3 5 -6 9 -20 9 -14 0 -27 -4 -30 -9z"/> <path d="M2203 7698 c1 -7 -6 -12 -16 -11 -12 1 -17 -4 -13 -14 3 -8 6 -17 6 -19 0 -9 22 -3 33 9 19 19 20 47 2 47 -8 0 -14 -6 -12 -12z"/> <path d="M2617 7675 l-17 -24 52 -26 c39 -19 47 -21 29 -7 -15 13 -21 24 -16 32 6 10 3 12 -10 6 -18 -7 -18 -6 -2 12 16 18 16 20 2 26 -21 8 -17 9 -38 -19z"/> <path d="M2851 7689 c-13 -5 -38 -16 -55 -23 -17 -8 -46 -17 -63 -21 -18 -4 -33 -10 -33 -15 0 -5 15 -4 33 1 17 5 56 16 85 24 28 8 62 21 74 29 21 15 21 16 3 15 -11 0 -31 -5 -44 -10z"/> <path d="M2479 7679 c-12 -8 -11 -12 5 -24 25 -19 46 -19 46 0 0 20 -33 36 -51 24z"/> <path d="M2105 7670 c3 -5 13 -10 21 -10 8 0 12 5 9 10 -3 6 -13 10 -21 10 -8 0 -12 -4 -9 -10z"/> <path d="M3012 7673 c-6 -2 -9 -9 -6 -14 3 -6 11 -5 20 2 11 9 14 8 14 -5 0 -9 5 -16 10 -16 7 0 7 6 0 20 -11 20 -16 22 -38 13z"/> <path d="M3147 7674 c-3 -4 5 -16 20 -27 23 -19 24 -21 8 -27 -27 -9 -67 0 -62 14 3 7 -4 18 -15 25 -18 11 -20 11 -14 -4 3 -9 9 -28 12 -41 5 -21 12 -24 48 -24 61 0 69 9 49 53 -16 35 -32 45 -46 31z"/> <path d="M1700 7652 c0 -4 16 -6 35 -4 19 2 35 6 35 8 0 2 -16 4 -35 4 -19 0 -35 -4 -35 -8z"/> <path d="M2541 7633 c-10 -21 -9 -28 6 -39 10 -7 21 -14 26 -14 13 0 7 21 -8 26 -8 4 -15 13 -15 21 0 20 53 -22 56 -44 3 -20 23 -33 49 -32 17 0 17 2 -5 12 -35 15 -34 15 -20 32 7 8 8 15 3 15 -6 0 -26 11 -45 24 l-36 24 -11 -25z"/> <path d="M1505 7624 c-11 -17 -13 -29 -7 -33 7 -4 8 -12 2 -21 -5 -9 -5 -19 2 -27 7 -9 7 -17 0 -25 -5 -7 -6 -22 -2 -33 7 -18 9 -17 16 10 5 17 8 33 9 37 0 3 3 10 8 14 10 10 9 104 -2 104 -5 0 -16 -12 -26 -26z"/> <path d="M3244 7625 c-6 -24 -50 -54 -83 -56 -9 -1 -5 -4 9 -9 18 -5 29 -3 38 8 8 11 12 12 12 3 0 -6 -11 -22 -24 -34 -26 -25 -21 -55 8 -44 8 3 18 2 21 -3 3 -4 -1 -11 -7 -13 -8 -4 -9 -6 -2 -6 6 -1 17 6 24 14 10 11 10 15 0 15 -8 0 -10 12 -7 34 5 41 29 96 40 96 5 0 5 5 2 10 -11 17 -24 11 -31 -15z"/> <path d="M2117 7622 c7 -28 15 -33 33 -21 12 7 13 9 1 9 -8 0 -20 8 -27 18 -12 15 -12 15 -7 -6z"/> <path d="M2309 7628 c-37 -14 -16 -18 47 -10 l59 8 -42 5 c-24 2 -53 1 -64 -3z"/> <path d="M2840 7616 l-35 -13 27 -5 c15 -3 25 -1 22 3 -3 5 2 9 10 9 8 0 18 5 21 10 8 13 -1 12 -45 -4z"/> <path d="M2745 7609 c-34 -9 -62 -46 -47 -61 5 -5 14 -3 22 7 10 12 10 15 -1 15 -21 0 4 20 31 25 13 2 28 9 34 15 12 12 3 12 -39 -1z"/> <path d="M3013 7598 c1 -24 14 -38 35 -38 10 0 9 8 -5 30 -21 36 -32 38 -30 8z"/> <path d="M2072 7599 c-13 -5 -20 -13 -17 -19 3 -5 -2 -10 -11 -10 -10 0 -14 -3 -11 -6 10 -11 67 17 67 32 0 8 -1 14 -2 13 -2 0 -13 -4 -26 -10z"/> <path d="M2220 7585 c-16 -19 0 -19 26 0 16 12 16 14 3 15 -9 0 -22 -7 -29 -15z"/> <path d="M2420 7591 c-22 -6 -23 -8 -7 -14 29 -11 59 -8 55 5 -5 15 -17 18 -48 9z"/> <path d="M2484 7579 c-3 -5 6 -9 20 -9 31 0 34 6 6 13 -11 3 -23 1 -26 -4z"/> <path d="M1840 7570 c8 -5 24 -10 34 -10 26 0 18 6 -19 14 -22 5 -26 4 -15 -4z"/> <path d="M2167 7562 c-10 -10 -17 -23 -17 -29 0 -6 -6 -14 -12 -16 -10 -4 -10 -6 -1 -6 6 -1 15 4 18 9 3 6 14 10 25 10 10 0 20 6 23 14 4 10 0 12 -16 8 -20 -5 -20 -4 -8 11 18 23 8 22 -12 -1z"/> <path d="M1615 7550 c8 -13 35 -13 55 0 11 7 5 10 -23 10 -23 0 -36 -4 -32 -10z"/> <path d="M1431 7508 c-20 -43 -20 -43 -2 -147 12 -62 16 -113 11 -126 -4 -11 -4 -63 1 -115 8 -79 15 -103 40 -145 17 -27 34 -65 37 -84 l5 -35 -30 22 c-42 30 -58 28 -76 -10 -19 -42 -16 -113 13 -294 35 -214 44 -240 95 -276 l43 -30 7 -97 c10 -138 27 -236 71 -388 8 -28 24 -30 24 -4 0 10 -13 85 -29 167 -16 82 -33 186 -36 231 -5 56 -13 90 -25 105 -13 18 -19 52 -25 146 -6 115 -6 122 12 122 12 0 23 12 31 34 15 41 37 62 88 80 30 11 34 15 15 15 -34 1 -86 -34 -110 -75 -12 -19 -25 -33 -30 -29 -5 3 -12 1 -16 -5 -4 -6 -11 -8 -16 -5 -12 8 -12 52 1 60 6 3 10 1 10 -6 0 -7 3 -10 6 -6 10 9 25 87 39 202 l14 110 41 35 c46 40 54 59 13 33 -44 -29 -73 -59 -73 -76 0 -9 -4 -19 -10 -22 -5 -3 -10 0 -10 8 0 8 -11 31 -25 52 -32 46 -46 110 -51 239 -3 55 -9 105 -14 111 -5 6 -9 42 -10 80 -2 110 0 129 11 135 6 4 5 11 -4 19 -12 10 -19 4 -36 -31z m63 -653 c11 -8 28 -15 37 -15 13 0 17 -6 13 -22 -3 -13 -7 -49 -9 -80 -2 -32 -7 -63 -11 -70 -14 -23 -22 -103 -12 -128 14 -35 37 -181 31 -196 -8 -23 -33 -3 -33 27 0 20 -4 27 -14 23 -20 -7 -30 30 -16 57 9 17 7 31 -11 72 -17 41 -23 75 -25 160 -2 63 0 106 5 102 20 -12 21 17 2 41 -12 15 -21 31 -21 35 0 14 43 10 64 -6z"/> <path d="M1695 7540 c3 -5 15 -10 25 -10 10 0 22 5 25 10 4 6 -7 10 -25 10 -18 0 -29 -4 -25 -10z"/> <path d="M2944 7535 c-18 -14 -18 -14 11 -15 25 -1 26 -3 11 -9 -19 -7 -19 -8 2 -13 17 -5 22 -2 22 13 0 10 -5 19 -11 19 -5 0 -7 5 -4 10 9 15 -8 12 -31 -5z"/> <path d="M2506 7520 c-79 -21 -112 -43 -50 -33 21 3 43 10 49 14 13 12 28 11 20 -1 -3 -5 1 -10 9 -10 9 0 16 6 16 13 0 6 8 2 18 -9 25 -32 55 -38 76 -15 16 18 16 19 -18 25 -20 4 -39 13 -43 20 -7 11 -20 11 -77 -4z"/> <path d="M2807 7526 c-3 -8 -1 -17 6 -20 8 -3 7 -5 -2 -5 -8 -1 -22 6 -30 13 -10 9 -22 12 -30 7 -16 -10 9 -27 61 -42 26 -7 28 -6 23 12 -6 19 -5 20 15 9 16 -9 25 -9 33 -1 8 8 5 11 -10 11 -12 0 -28 7 -37 15 -18 19 -22 19 -29 1z"/> <path d="M3040 7529 c0 -4 5 -11 10 -14 6 -4 8 -11 4 -16 -3 -6 3 -13 15 -16 22 -6 28 -32 11 -49 -8 -8 3 -16 35 -28 25 -10 45 -21 45 -25 0 -5 11 -6 25 -3 14 2 25 10 25 16 0 14 -20 36 -33 36 -5 0 -1 -7 8 -16 19 -20 14 -28 -13 -20 -28 9 -75 78 -60 87 9 6 7 14 -7 29 -14 16 -20 17 -27 8 -6 -10 -8 -9 -8 3 0 9 -7 16 -15 16 -8 0 -15 -4 -15 -8z"/> <path d="M3269 7531 c10 -6 10 -13 3 -28 -8 -15 -7 -22 9 -31 16 -10 21 -10 25 3 7 18 -21 65 -39 65 -8 0 -8 -3 2 -9z"/> <path d="M2081 7516 c-23 -13 -23 -13 -3 -18 20 -5 42 7 42 24 0 11 -11 9 -39 -6z"/> <path d="M2610 7520 c14 -4 39 -8 55 -8 25 -1 27 1 10 8 -11 5 -36 8 -55 8 -32 0 -33 -1 -10 -8z"/> <path d="M2210 7511 c-19 -4 -43 -12 -54 -18 -17 -9 -16 -11 8 -17 31 -8 96 2 96 14 0 5 8 6 18 4 9 -3 28 -1 42 5 l25 10 -30 1 c-16 0 -39 2 -50 4 -11 2 -36 1 -55 -3z"/> <path d="M2914 7501 c4 -5 2 -11 -4 -13 -15 -5 2 -24 29 -33 16 -5 21 -4 17 4 -4 6 -14 11 -22 11 -8 0 -14 5 -14 10 0 6 5 10 10 10 6 0 10 5 10 10 0 6 -7 10 -16 10 -8 0 -13 -4 -10 -9z"/> <path d="M3136 7486 c-8 -33 -9 -31 27 -40 33 -8 34 0 3 38 l-23 30 -7 -28z"/> <path d="M2666 7474 c-23 -22 -21 -27 27 -61 63 -44 67 -46 67 -28 0 9 -13 21 -30 26 -16 6 -30 15 -30 20 0 5 -10 14 -22 19 -13 5 -17 9 -10 9 7 1 23 -4 35 -11 12 -6 34 -12 50 -14 26 -2 26 -1 10 13 -17 14 -17 14 0 9 31 -10 18 5 -18 20 -44 18 -60 18 -79 -2z"/> <path d="M2964 7475 c11 -8 22 -12 25 -9 6 6 -19 24 -34 24 -5 -1 -1 -7 9 -15z"/> <path d="M2847 7467 c-3 -7 8 -22 23 -32 26 -18 90 -115 90 -137 0 -5 7 -16 15 -24 27 -27 18 17 -16 84 -33 64 -103 132 -112 109z"/> <path d="M2381 7449 c-12 -12 -21 -23 -19 -24 3 -4 50 6 88 17 8 3 12 3 8 1 -11 -6 -10 -23 0 -23 5 0 14 11 20 24 9 21 8 23 -19 22 -16 -1 -29 -4 -29 -7 0 -4 -7 -10 -16 -13 -14 -5 -15 -4 -4 9 19 23 -3 18 -29 -6z"/> <path d="M2510 7460 c0 -5 12 -10 28 -10 21 0 24 2 12 10 -20 13 -40 13 -40 0z"/> <path d="M2308 7444 c-37 -19 -36 -25 2 -11 17 6 30 15 30 19 0 10 0 10 -32 -8z"/> <path d="M3296 7442 c-3 -5 6 -14 19 -20 15 -7 22 -17 19 -25 -3 -9 4 -17 18 -21 l23 -6 -24 -19 c-18 -14 -21 -20 -10 -25 10 -4 11 -7 2 -12 -16 -7 24 -64 45 -64 12 0 12 -3 2 -15 -10 -12 -10 -15 4 -15 9 0 16 6 16 13 0 8 4 7 10 -3 8 -12 10 -11 10 7 0 12 -4 24 -9 28 -5 3 -13 20 -16 38 -4 17 -17 50 -28 72 -12 22 -21 47 -21 55 -1 17 -51 27 -60 12z"/> <path d="M2165 7430 c-4 -6 -12 -7 -18 -4 -9 5 -9 4 0 -6 9 -10 16 -9 34 4 18 12 20 16 7 16 -9 0 -20 -5 -23 -10z"/> <path d="M2500 7430 c19 -12 50 -13 50 -2 0 5 -14 9 -32 10 -23 1 -28 -2 -18 -8z"/> <path d="M1710 7416 c0 -2 11 -11 25 -20 14 -9 25 -13 25 -8 0 5 -11 14 -25 20 -14 6 -25 10 -25 8z"/> <path d="M2572 7404 c-11 -12 -7 -19 22 -44 19 -17 49 -53 66 -80 24 -37 38 -50 56 -50 17 0 22 4 17 16 -3 8 -12 13 -19 10 -8 -3 -14 -1 -14 4 0 6 -8 10 -17 10 -14 0 -13 3 5 16 20 14 22 42 3 29 -9 -5 -35 22 -44 46 -3 9 -18 26 -34 37 -24 17 -30 18 -41 6z m48 -34 c14 -10 22 -21 19 -25 -4 -3 -20 5 -35 19 -34 30 -21 35 16 6z"/> <path d="M2786 7404 c-8 -21 -8 -24 5 -24 5 0 7 5 4 10 -3 6 -1 10 4 10 6 0 11 5 11 10 0 16 -17 12 -24 -6z"/> <path d="M2980 7388 c30 -50 142 -158 170 -164 14 -3 35 -10 48 -15 29 -12 82 -12 82 0 0 12 -29 23 -42 15 -5 -3 -16 2 -24 12 -11 14 -17 15 -20 7 -9 -21 -21 -15 -100 48 -83 68 -93 82 -75 110 9 16 8 19 -5 19 -8 0 -12 -4 -9 -10 3 -5 2 -10 -4 -10 -5 0 -13 5 -16 10 -3 6 -10 10 -15 10 -6 0 -1 -15 10 -32z"/> <path d="M3240 7380 c13 -26 20 -54 18 -71 -3 -16 -1 -29 4 -29 4 0 8 -7 8 -15 0 -8 7 -15 15 -15 10 0 15 10 15 30 0 17 -4 30 -10 30 -5 0 -10 11 -10 24 0 14 5 28 10 31 6 3 10 18 10 32 0 24 -13 25 -16 2 -1 -5 -2 -13 -3 -19 -2 -17 -16 -11 -26 12 -6 12 -16 24 -23 26 -9 3 -6 -10 8 -38z"/> <path d="M2820 7395 c0 -8 4 -15 10 -15 5 0 7 -6 5 -12 -3 -7 6 -18 20 -25 24 -11 25 -10 19 10 -14 44 -54 75 -54 42z"/> <path d="M3054 7391 c20 -22 20 -22 0 -15 -15 5 -14 2 6 -14 14 -12 26 -19 28 -17 9 9 -10 41 -30 54 l-23 14 19 -22z"/> <path d="M2085 7390 c3 -5 13 -10 21 -10 8 0 12 5 9 10 -3 6 -13 10 -21 10 -8 0 -12 -4 -9 -10z"/> <path d="M2658 7365 c19 -39 37 -47 26 -12 -8 26 -23 47 -35 47 -5 0 -1 -16 9 -35z"/> <path d="M2149 7379 c-10 -6 -7 -9 14 -9 29 0 35 5 14 13 -8 3 -20 1 -28 -4z"/> <path d="M2529 7341 c11 -15 18 -31 14 -35 -3 -3 -1 -6 5 -6 7 0 12 5 12 10 0 16 -31 60 -42 60 -5 0 0 -13 11 -29z"/> <path d="M3144 7345 c21 -16 32 -13 21 4 -3 6 -14 11 -23 11 -15 -1 -15 -2 2 -15z"/> <path d="M1514 7338 c2 -7 8 -24 15 -38 l12 -25 -6 25 c-2 14 -5 31 -5 38 0 6 -4 12 -9 12 -5 0 -8 -6 -7 -12z"/> <path d="M1553 7315 c0 -22 2 -30 4 -17 2 12 2 30 0 40 -3 9 -5 -1 -4 -23z"/> <path d="M1640 7324 c0 -10 5 -26 10 -34 8 -11 9 -7 4 15 -8 37 -14 45 -14 19z"/> <path d="M1951 7329 c18 -11 39 -11 39 0 0 5 -12 9 -26 9 -18 0 -22 -3 -13 -9z"/> <path d="M2768 7295 c-3 -28 0 -35 13 -35 20 0 42 -24 31 -35 -4 -5 7 2 24 16 17 13 31 25 30 26 -1 1 -21 3 -45 4 -39 3 -42 5 -38 26 2 13 1 26 -3 28 -4 3 -10 -11 -12 -30z"/> <path d="M3140 7321 c0 -5 8 -15 17 -22 12 -10 15 -11 9 -1 -6 10 -1 11 21 6 37 -9 24 4 -16 16 -17 5 -31 5 -31 1z"/> <path d="M2806 7310 c16 -16 73 -30 79 -19 7 10 -3 14 -55 23 -24 4 -31 3 -24 -4z"/> <path d="M2624 7274 c8 -17 13 -34 9 -37 -9 -9 -11 -77 -3 -77 27 0 26 91 0 121 l-21 24 15 -31z"/> <path d="M2892 7256 c-14 -39 -15 -56 -2 -36 8 13 10 12 10 -2 0 -10 4 -18 9 -18 5 0 16 -3 25 -6 11 -4 16 0 16 13 0 11 -3 23 -7 27 -5 4 -9 12 -9 17 -1 5 -2 13 -3 18 -3 25 -29 16 -39 -13z"/> <path d="M3040 7265 c7 -8 17 -15 22 -15 6 0 5 7 -2 15 -7 8 -17 15 -22 15 -6 0 -5 -7 2 -15z"/> <path d="M1622 7255 c0 -11 5 -38 13 -60 7 -22 13 -31 13 -20 0 11 -5 38 -13 60 -7 22 -13 31 -13 20z"/> <path d="M3020 7232 c0 -28 12 -62 21 -62 5 0 9 10 9 22 0 20 1 20 18 5 10 -10 24 -17 31 -17 21 0 -15 42 -49 56 -27 12 -30 11 -30 -4z"/> <path d="M2970 7216 c0 -13 5 -26 11 -28 9 -3 9 -9 0 -25 -9 -19 -8 -24 11 -37 22 -16 58 -23 44 -8 -4 4 -11 7 -14 7 -15 0 -32 17 -32 31 0 20 20 17 21 -3 0 -10 3 -13 5 -6 5 11 -31 93 -41 93 -3 0 -5 -11 -5 -24z"/> <path d="M2698 7206 c3 -6 8 -20 10 -31 5 -34 29 -49 74 -46 12 1 15 6 11 17 -3 9 -13 14 -24 11 -10 -3 -24 1 -30 9 -10 12 -9 13 6 8 13 -5 16 -4 11 4 -4 7 -14 12 -22 12 -8 0 -14 6 -14 13 0 8 -7 14 -15 14 -8 0 -11 -5 -7 -11z"/> <path d="M3131 7189 c13 -10 30 -19 38 -19 24 0 -7 27 -36 33 l-27 5 25 -19z"/> <path d="M3365 7181 c-3 -6 -37 -11 -76 -11 -47 0 -68 -3 -64 -11 5 -7 30 -8 74 -4 63 7 92 18 79 30 -3 4 -9 2 -13 -4z"/> <path d="M3410 7174 c0 -9 8 -23 18 -31 16 -14 16 -14 0 -9 -10 3 -28 2 -40 -3 -22 -8 -22 -8 3 -13 35 -8 82 -3 86 9 2 5 -3 16 -12 23 -8 7 -15 19 -15 26 0 8 -9 14 -20 14 -12 0 -20 -7 -20 -16z"/> <path d="M2880 7170 l-35 -6 35 -11 c36 -10 60 -7 60 7 0 13 -23 16 -60 10z"/> <path d="M3047 7122 c2 -11 26 -24 66 -37 76 -23 94 -34 100 -57 3 -10 13 -21 24 -25 26 -9 33 -23 33 -64 0 -32 3 -37 23 -37 12 0 31 -2 42 -4 11 -3 14 -3 7 -1 -8 3 -11 11 -8 19 6 14 -27 38 -38 27 -3 -3 -7 -1 -7 5 -1 7 -3 17 -4 22 -1 6 -3 16 -4 24 0 7 -14 16 -31 20 -16 3 -30 10 -30 16 0 7 6 8 19 0 11 -5 25 -10 31 -10 19 0 -9 40 -28 40 -9 0 -26 7 -36 15 -20 15 -20 15 0 15 13 0 8 6 -16 18 -23 12 -39 15 -47 9 -8 -6 -18 -5 -26 1 -7 6 -27 13 -44 16 -26 5 -30 3 -26 -12z"/> <path d="M2199 7082 c-35 -27 -70 -56 -78 -65 -16 -20 -130 -57 -182 -59 -44 -1 -134 40 -134 62 0 8 -8 16 -17 18 -48 9 5 -47 72 -77 l45 -20 -48 0 c-53 -1 -96 17 -141 58 -25 23 -27 24 -17 4 27 -53 137 -97 186 -75 14 7 46 12 71 12 24 0 61 7 81 15 19 8 42 15 50 15 7 0 37 22 66 49 29 27 68 63 87 80 53 46 31 37 -41 -17z"/> <path d="M2610 7123 c0 -14 19 -38 25 -32 8 8 -5 39 -16 39 -5 0 -9 -3 -9 -7z"/> <path d="M2845 7123 c-45 -11 -39 -25 8 -20 55 5 91 28 42 26 -17 -1 -39 -3 -50 -6z"/> <path d="M3230 7105 c0 -14 4 -25 9 -25 4 0 6 11 3 25 -2 14 -6 25 -8 25 -2 0 -4 -11 -4 -25z"/> <path d="M2711 7104 c-1 -12 6 -28 16 -35 15 -13 15 -12 6 6 -6 11 -13 27 -16 35 -4 10 -6 8 -6 -6z"/> <path d="M2945 7110 c3 -5 18 -10 33 -10 21 0 24 2 12 10 -20 13 -53 13 -45 0z"/> <path d="M3260 7113 c0 -11 33 -43 44 -43 4 0 5 4 2 9 -3 5 1 11 9 15 8 3 17 1 20 -4 3 -4 0 -10 -7 -12 -8 -3 -6 -7 5 -11 10 -4 16 -2 14 6 -1 7 6 11 16 11 9 -1 17 2 17 7 0 5 -8 10 -17 11 -10 0 -29 2 -43 3 -14 2 -33 6 -42 10 -10 4 -18 3 -18 -2z"/> <path d="M3021 7079 c-1 -9 14 -24 33 -34 21 -12 41 -34 52 -57 9 -20 20 -35 25 -32 4 2 13 -5 19 -17 7 -11 14 -18 17 -15 3 3 -1 16 -9 28 -23 35 -1 51 35 26 15 -11 27 -15 27 -9 0 14 -41 41 -61 41 -9 0 -23 7 -30 16 -12 15 -11 16 11 10 18 -5 16 -1 -10 13 -19 11 -49 20 -67 21 -17 0 -34 6 -36 13 -4 8 -6 6 -6 -4z"/> <path d="M3440 7070 c-8 -5 -43 -12 -77 -16 -44 -4 -63 -11 -63 -20 0 -16 16 -19 25 -4 11 17 36 11 33 -7 -2 -12 3 -17 15 -15 9 2 17 -1 17 -6 0 -4 6 -17 14 -28 10 -13 14 -14 13 -4 -2 8 -6 20 -10 27 -9 14 22 33 55 33 18 0 20 -2 8 -10 -11 -7 -12 -12 -4 -20 9 -9 14 -9 19 -1 8 14 -3 51 -15 51 -5 0 -7 7 -4 15 7 17 -4 19 -26 5z"/> <path d="M1850 7056 c0 -13 62 -36 92 -35 31 1 31 2 -9 9 -23 5 -51 14 -63 20 -11 6 -20 8 -20 6z"/> <path d="M2896 7035 c9 -14 20 -25 25 -25 6 0 12 -8 16 -17 11 -33 75 -113 84 -107 5 3 9 -2 9 -10 0 -15 18 -32 26 -24 2 3 -8 28 -22 57 -18 36 -31 50 -41 47 -8 -3 -12 -2 -9 3 3 5 -3 20 -14 34 -19 24 -19 26 -3 31 10 2 3 3 -15 1 -24 -2 -35 2 -42 16 -6 10 -15 19 -21 19 -5 0 -2 -11 7 -25z"/> <path d="M2986 7051 c-6 -9 35 -24 43 -15 6 5 -18 24 -31 24 -4 0 -9 -4 -12 -9z"/> <path d="M2213 7029 c11 -6 47 -13 80 -15 60 -3 61 -3 17 6 -92 19 -117 21 -97 9z"/> <path d="M2830 7030 c0 -8 -9 -10 -25 -6 -14 4 -25 2 -25 -4 0 -5 16 -10 35 -10 34 0 46 12 25 25 -5 3 -10 1 -10 -5z"/> <path d="M3037 6997 c12 -16 20 -34 17 -41 -3 -7 3 -19 13 -26 15 -12 16 -12 6 0 -18 20 -16 35 2 20 11 -9 15 -10 15 -1 0 13 -7 21 -50 56 l-24 20 21 -28z"/> <path d="M2853 6995 c-15 -17 -17 -29 -4 -20 6 3 26 -9 46 -26 27 -24 33 -34 23 -40 -9 -6 -4 -9 15 -9 l28 0 -22 33 c-21 30 -65 77 -71 77 -2 -1 -9 -7 -15 -15z"/> <path d="M3320 6981 c5 -11 19 -23 30 -26 11 -3 25 -16 31 -27 8 -15 8 -19 0 -14 -6 4 -11 1 -11 -8 0 -8 4 -16 9 -18 6 -1 12 -17 15 -33 5 -27 2 -32 -27 -44 -29 -11 -30 -13 -12 -21 28 -12 37 -12 30 0 -3 6 0 10 8 10 21 0 39 47 27 70 -5 10 -10 33 -10 50 0 18 -4 29 -10 25 -5 -3 -10 -1 -10 4 0 6 0 14 -1 19 -1 10 -41 31 -62 32 -14 0 -16 -4 -7 -19z"/> <path d="M2151 6980 c-7 -4 5 -12 27 -18 40 -12 90 -16 80 -7 -11 12 -97 32 -107 25z"/> <path d="M2535 6970 c17 -11 35 -20 40 -20 6 0 -3 9 -20 20 -16 11 -34 20 -40 20 -5 0 4 -9 20 -20z"/> <path d="M3488 6982 c-22 -4 -24 -22 -3 -22 8 0 15 -5 15 -10 0 -6 -7 -13 -15 -15 -8 -3 -21 -7 -29 -9 -9 -3 -12 -13 -9 -26 3 -12 11 -19 18 -16 7 2 17 0 23 -6 6 -6 12 -6 16 1 4 5 14 7 23 4 18 -7 17 -1 -9 67 -9 25 -18 34 -30 32z"/> <path d="M2285 6950 c3 -5 17 -10 31 -10 13 0 24 5 24 10 0 6 -14 10 -31 10 -17 0 -28 -4 -24 -10z"/> <path d="M3206 6935 c10 -16 22 -33 27 -36 5 -3 7 -8 5 -11 -1 -2 4 -12 13 -21 16 -15 17 -15 22 3 3 11 1 20 -5 20 -6 0 -26 17 -45 38 -32 33 -33 34 -17 7z"/> <path d="M2688 6943 c12 -2 30 -2 40 0 9 3 -1 5 -23 4 -22 0 -30 -2 -17 -4z"/> <path d="M2575 6912 c25 -30 114 -72 151 -72 22 0 26 3 14 10 -8 5 -24 10 -34 10 -23 0 -102 36 -131 59 -20 16 -20 16 0 -7z"/> <path d="M3140 6889 c0 -8 12 -22 25 -32 38 -27 31 2 -7 32 -15 11 -18 11 -18 0z"/> <path d="M1817 6842 c-20 -21 -37 -40 -37 -43 0 -2 17 -4 38 -4 29 0 36 2 28 11 -6 7 -15 9 -20 6 -13 -7 3 18 27 46 35 38 3 24 -36 -16z"/> <path d="M2973 6870 c4 -8 10 -23 13 -32 4 -10 10 -18 14 -18 13 0 0 38 -18 52 -13 11 -14 11 -9 -2z"/> <path d="M1905 6845 c22 -9 55 -16 73 -16 19 0 44 -7 58 -15 13 -9 33 -14 44 -11 11 3 20 1 20 -4 0 -16 42 -48 56 -42 8 3 17 -3 20 -12 5 -13 9 -14 16 -3 6 10 14 7 33 -15 14 -16 25 -22 25 -14 0 7 -13 26 -30 42 -16 16 -30 26 -30 22 0 -3 -12 1 -27 8 -21 11 -29 12 -35 2 -5 -9 -8 -7 -8 4 0 23 -92 59 -145 57 -11 -1 -40 2 -65 6 l-45 6 40 -15z"/> <path d="M1736 6814 c-26 -20 -43 -40 -40 -46 5 -7 11 -6 18 4 6 8 16 13 22 11 9 -3 64 49 64 62 0 12 -20 2 -64 -31z"/> <path d="M3307 6843 c-4 -3 -2 -12 3 -19 13 -15 47 -7 54 12 6 16 -10 19 -19 4 -3 -5 -11 -10 -16 -10 -6 0 -7 5 -4 10 7 11 -8 14 -18 3z"/> <path d="M3444 6841 c6 -10 -16 -61 -26 -61 -5 0 -8 -6 -8 -14 0 -10 -10 -14 -30 -13 -16 1 -30 -1 -30 -5 0 -5 0 -12 0 -18 0 -6 9 -6 26 0 14 6 30 8 35 5 5 -4 14 7 20 22 23 56 34 78 44 85 5 4 0 8 -13 8 -13 0 -21 -4 -18 -9z"/> <path d="M3197 6833 c-11 -11 -8 -24 6 -22 37 5 57 -2 57 -20 0 -14 5 -18 19 -14 19 5 19 6 3 22 -9 9 -30 22 -45 29 -33 14 -32 14 -40 5z"/> <path d="M3074 6816 c-3 -9 1 -23 10 -31 15 -15 16 -14 16 9 0 29 -18 44 -26 22z"/> <path d="M1875 6790 c-7 -11 9 -18 106 -49 94 -30 118 -28 82 7 -16 16 -16 16 -10 0 9 -26 -14 -22 -45 7 -15 14 -35 24 -45 23 -10 0 -29 0 -43 1 -20 1 -22 3 -10 11 12 8 11 10 -7 10 -12 0 -25 -4 -28 -10z"/> <path d="M3161 6778 c7 -13 18 -27 25 -31 8 -4 14 -15 14 -22 0 -8 3 -15 8 -16 4 0 16 -2 27 -4 17 -3 18 -2 4 8 -9 7 -14 18 -12 25 3 7 -1 10 -9 7 -7 -3 -22 8 -33 25 -23 35 -41 41 -24 8z"/> <path d="M3325 6772 c-6 -4 -22 -23 -35 -42 -13 -19 -35 -48 -49 -64 -14 -16 -19 -26 -11 -22 8 3 23 9 33 12 10 4 21 20 24 35 3 16 11 29 18 29 7 0 18 14 24 30 11 33 11 33 -4 22z"/> <path d="M3073 6752 c1 -9 6 -23 11 -30 5 -8 3 -11 -6 -10 -7 2 -14 -7 -16 -20 -2 -13 -23 -37 -47 -55 -24 -17 -44 -35 -45 -39 0 -14 41 6 51 24 5 10 14 16 20 13 5 -4 17 7 27 24 9 17 20 31 25 31 14 0 7 68 -8 74 -10 3 -14 0 -12 -12z"/> <path d="M3140 6758 c0 -8 7 -21 15 -28 19 -16 19 -1 0 24 -12 16 -15 17 -15 4z"/> <path d="M2581 6751 c-19 -3 -36 -12 -39 -18 -5 -16 10 -16 42 -2 19 9 29 9 40 0 10 -9 16 -9 21 -1 4 6 13 9 21 6 8 -3 14 1 14 9 0 8 -7 15 -15 15 -8 0 -15 -4 -15 -10 0 -5 -5 -10 -11 -10 -5 0 -7 5 -4 10 7 11 -1 11 -54 1z"/> <path d="M2120 6735 c7 -8 17 -15 22 -15 6 0 5 7 -2 15 -7 8 -17 15 -22 15 -6 0 -5 -7 2 -15z"/> <path d="M2507 6734 c-3 -3 -3 -13 0 -21 5 -12 7 -12 14 -1 15 23 4 40 -14 22z"/> <path d="M2880 6725 c7 -8 20 -15 28 -15 13 0 12 3 -4 15 -25 19 -40 19 -24 0z"/> <path d="M3360 6710 c0 -5 -6 -7 -13 -4 -8 3 -19 -2 -26 -9 -9 -12 -8 -16 4 -21 17 -6 20 -26 4 -26 -7 0 -18 -8 -25 -17 -7 -10 -17 -18 -23 -18 -6 0 -11 -3 -11 -7 0 -5 0 -17 0 -28 0 -28 17 -25 24 5 4 14 14 25 23 25 18 0 53 37 53 55 0 7 7 18 15 25 13 11 13 15 3 21 -17 12 -28 11 -28 -1z"/> <path d="M3160 6675 c0 -14 -7 -28 -15 -31 -17 -7 -21 -54 -4 -54 6 0 9 7 5 15 -3 8 -1 15 5 15 6 0 8 4 5 9 -3 5 1 11 9 15 17 6 21 56 5 56 -5 0 -10 -11 -10 -25z"/> <path d="M1781 6676 c2 -2 42 -6 89 -9 48 -3 74 -1 60 3 -25 8 -157 13 -149 6z"/> <path d="M2722 6663 c2 -12 14 -19 38 -21 34 -4 36 9 2 14 -9 2 -18 8 -20 13 -6 18 -24 12 -20 -6z"/> <path d="M2071 6637 c81 -28 113 -48 142 -92 12 -19 29 -35 37 -35 10 0 11 3 3 8 -6 4 -14 19 -18 34 -10 40 -63 75 -139 92 -93 22 -103 19 -25 -7z"/> <path d="M2847 6653 c-12 -11 -8 -21 13 -26 11 -3 25 2 32 11 11 13 10 15 -3 10 -9 -4 -21 -2 -26 3 -5 5 -12 6 -16 2z"/> <path d="M1845 6629 c-32 -9 -75 -43 -75 -59 0 -6 9 -1 20 10 11 11 40 26 65 32 25 7 45 16 45 20 0 10 -15 9 -55 -3z"/> <path d="M3223 6633 c-16 -3 -23 -13 -25 -36 -2 -18 -7 -30 -12 -29 -5 2 -13 -4 -18 -13 -6 -10 -17 -14 -31 -10 -15 4 -18 3 -9 -3 11 -7 11 -10 -2 -15 -16 -6 -23 -47 -8 -47 5 0 17 7 28 16 18 14 18 15 -6 9 l-25 -7 23 17 c19 14 24 14 36 3 20 -21 2 -60 -26 -56 -18 2 -26 -5 -37 -29 -8 -18 -18 -33 -23 -33 -11 0 -10 77 1 118 5 17 6 32 1 32 -11 0 -20 -26 -20 -61 0 -22 -4 -28 -12 -23 -10 6 -10 4 0 -8 18 -22 3 -99 -38 -205 -57 -149 -126 -198 -275 -197 -44 0 -99 6 -123 13 -87 25 -154 114 -187 250 -7 31 -14 48 -14 38 -1 -10 -5 -15 -11 -12 -14 9 -13 6 19 -71 69 -165 67 -161 136 -195 76 -36 164 -46 267 -29 112 19 161 74 218 244 16 48 34 84 46 90 10 6 22 15 25 20 4 5 13 6 20 4 8 -3 0 -10 -18 -18 -18 -8 -27 -17 -21 -21 20 -12 47 3 59 35 7 17 18 44 24 60 10 26 17 30 58 32 45 3 114 30 103 41 -3 3 -26 0 -52 -6 -34 -9 -50 -9 -59 -1 -10 8 -20 8 -36 -1 l-23 -12 18 29 c10 16 24 34 31 39 16 13 38 55 28 54 -4 -1 -18 -4 -30 -6z"/> <path d="M2430 6600 c34 -11 60 -11 35 0 -11 5 -29 8 -40 8 -16 0 -15 -2 5 -8z"/> <path d="M1615 6590 c-12 -19 -18 -110 -7 -110 6 0 12 27 14 60 3 63 3 66 -7 50z"/> <path d="M1824 6569 c-41 -12 -51 -35 -19 -41 13 -3 23 -1 22 5 -1 5 15 15 35 22 l37 14 3 -37 c2 -29 9 -40 31 -50 41 -20 76 -8 84 28 3 17 10 30 15 30 21 0 73 -53 70 -71 -3 -15 3 -19 27 -19 37 0 39 11 7 36 -14 10 -22 22 -20 26 3 5 2 8 -3 7 -4 -1 -37 12 -73 29 -52 26 -77 32 -125 31 -33 0 -74 -5 -91 -10z m145 -26 c33 -3 38 -11 18 -30 -9 -10 -17 -12 -17 -6 0 6 -8 9 -19 6 -10 -3 -22 0 -25 5 -8 13 5 47 13 35 3 -5 17 -10 30 -10z"/> <path d="M2070 6565 c33 -19 50 -18 26 0 -11 8 -27 15 -35 15 -10 -1 -7 -6 9 -15z"/> <path d="M2537 6566 c-27 -7 -61 -23 -77 -35 -16 -11 -44 -21 -62 -22 l-33 0 39 -15 c37 -13 39 -13 58 11 38 48 73 59 200 59 64 1 114 4 111 9 -7 12 -184 7 -236 -7z"/> <path d="M2940 6565 c0 -18 -12 -19 -28 -3 -9 9 -12 8 -12 -5 0 -10 8 -17 19 -17 11 0 23 -4 26 -10 9 -15 42 -12 49 5 3 8 12 15 21 15 8 0 15 5 15 10 0 9 -27 7 -67 -6 -7 -2 -13 1 -13 5 0 5 6 12 13 14 7 3 5 6 -5 6 -10 1 -18 -6 -18 -14z"/> <path d="M2835 6560 c-8 -13 15 -13 35 0 12 8 11 10 -7 10 -12 0 -25 -4 -28 -10z"/> <path d="M2655 6539 c3 -4 -1 -10 -7 -12 -7 -3 15 -5 49 -4 35 1 63 5 63 10 0 8 1 8 -62 11 -26 2 -45 0 -43 -5z"/> <path d="M2470 6490 c-6 -12 -9 -24 -7 -27 3 -2 11 5 17 17 6 12 9 24 7 27 -3 2 -11 -5 -17 -17z"/> <path d="M2230 6485 c0 -8 4 -15 9 -15 5 0 14 7 21 15 10 13 9 15 -9 15 -12 0 -21 -6 -21 -15z"/> <path d="M2735 6483 c5 -15 4 -16 -6 -5 -18 17 -111 15 -135 -4 -18 -14 -18 -15 5 -8 40 11 104 11 133 0 32 -12 33 -14 13 -39 -17 -23 -51 -15 -60 14 -8 24 -25 25 -25 2 0 -26 12 -41 40 -51 31 -12 78 13 86 45 7 28 15 29 45 4 28 -23 21 -34 -38 -62 -29 -13 -33 -18 -17 -18 12 -1 32 7 45 17 38 30 62 36 57 15 -4 -13 1 -18 17 -18 21 0 20 3 -16 46 -28 34 -52 51 -88 63 -62 20 -65 20 -56 -1z"/> <path d="M2264 6455 c-14 -34 -29 -51 -17 -18 4 11 3 14 -6 9 -7 -5 -10 -15 -7 -23 13 -34 -125 -205 -189 -234 -80 -37 -257 -16 -346 41 -53 34 -96 104 -110 178 l-8 47 4 -50 c10 -114 49 -172 150 -219 74 -36 218 -47 291 -22 72 24 189 151 239 258 19 41 31 54 52 59 27 7 27 7 -5 8 -29 1 -35 -4 -48 -34z"/> <path d="M2377 6465 c17 -8 35 -20 39 -26 5 -8 3 -9 -5 -4 -9 5 -12 2 -9 -10 5 -30 25 -28 31 2 7 35 0 43 -49 48 l-39 5 32 -15z"/> <path d="M2033 6463 c9 -2 25 -2 35 0 9 3 1 5 -18 5 -19 0 -27 -2 -17 -5z"/> <path d="M1810 6451 c0 -16 52 -40 101 -46 l44 -5 -45 14 c-26 7 -58 21 -73 31 -15 10 -27 13 -27 6z"/> <path d="M2153 6416 c-19 -9 -33 -36 -19 -36 20 0 56 22 56 35 0 17 -6 17 -37 1z"/> <path d="M3010 6398 c-8 -21 -22 -40 -32 -44 -10 -3 -18 -10 -18 -15 0 -5 -29 -44 -64 -86 -36 -42 -67 -86 -70 -97 -4 -16 3 -12 25 14 17 19 54 61 82 93 52 59 100 142 94 162 -2 5 -10 -7 -17 -27z"/> <path d="M2590 6400 c20 -13 43 -13 35 0 -3 6 -16 10 -28 10 -18 0 -19 -2 -7 -10z"/> <path d="M2457 6367 c9 -36 23 -49 39 -36 21 17 17 27 -15 43 -28 15 -29 15 -24 -7z"/> <path d="M2620 6341 c0 -13 102 -44 109 -33 3 5 13 12 21 15 8 3 -9 6 -37 7 -63 3 -65 3 -80 13 -8 5 -13 4 -13 -2z"/> <path d="M3081 6304 c-12 -47 -9 -64 13 -64 15 0 29 69 20 94 -10 27 -21 18 -33 -30z"/> <path d="M1647 6315 c25 -36 63 -72 63 -59 0 6 -19 28 -42 49 -36 35 -38 36 -21 10z"/> <path d="M2806 6325 c-17 -13 -17 -15 -4 -15 9 0 20 5 23 10 4 6 11 8 16 5 5 -4 9 -1 9 4 0 15 -21 13 -44 -4z"/> <path d="M1720 6252 c0 -11 45 -32 66 -32 8 0 12 5 9 10 -3 6 -17 10 -31 10 -13 0 -24 5 -24 10 0 6 -4 10 -10 10 -5 0 -10 -4 -10 -8z"/> <path d="M3117 6236 c-4 -10 -7 -25 -6 -34 0 -11 4 -9 10 7 5 13 8 29 6 35 -2 5 -6 2 -10 -8z"/> <path d="M1820 6211 c8 -5 47 -11 85 -15 l70 -5 -65 14 c-77 17 -113 19 -90 6z"/> <path d="M3083 6114 c-13 -15 -28 -22 -37 -18 -11 4 -16 0 -16 -11 0 -12 5 -15 16 -11 9 3 20 6 25 6 10 0 44 49 38 55 -2 2 -14 -7 -26 -21z"/> <path d="M2032 6085 c-23 -36 -20 -49 5 -17 22 28 34 52 26 52 -4 0 -18 -16 -31 -35z"/> <path d="M2785 6108 c-11 -7 -26 -18 -33 -25 -11 -11 -10 -13 6 -13 11 0 27 11 36 25 19 28 18 29 -9 13z"/> <path d="M2490 6053 c0 -5 5 -15 10 -23 8 -12 10 -11 10 8 0 12 -4 22 -10 22 -5 0 -10 -3 -10 -7z"/> <path d="M2062 5992 c-9 -7 -7 -13 9 -28 13 -10 19 -13 15 -6 -10 16 2 15 44 -7 19 -9 34 -23 32 -30 -3 -15 26 -40 46 -41 19 0 -45 79 -82 101 -34 21 -45 23 -64 11z"/> <path d="M2369 5929 c-21 -18 -22 -20 -4 -14 11 4 35 9 53 12 17 3 32 10 32 14 0 17 -58 9 -81 -12z"/> <path d="M1855 5840 c4 -6 11 -8 16 -5 5 4 9 0 9 -7 0 -8 14 -22 30 -31 17 -10 37 -31 45 -48 9 -16 20 -29 26 -29 6 0 6 6 0 19 -9 16 -3 15 42 -9 113 -60 168 -73 298 -67 70 3 119 1 119 -4 0 -5 10 -3 23 5 37 24 86 30 93 12 9 -23 18 -20 33 15 13 29 7 55 -7 32 -4 -6 -38 -16 -75 -21 -56 -7 -77 -6 -120 9 -29 10 -61 18 -72 18 -11 0 5 -8 35 -18 49 -15 52 -18 30 -24 -36 -10 -194 -9 -205 2 -6 4 -32 14 -60 21 -27 7 -63 20 -80 28 -27 14 -28 16 -10 22 15 5 10 8 -21 13 -23 4 -53 18 -68 32 -41 38 -98 63 -81 35z"/> <path d="M2135 5839 c-4 -6 -5 -12 -2 -15 7 -7 37 7 37 17 0 13 -27 11 -35 -2z"/> <path d="M2887 5809 c-15 -22 -27 -48 -28 -57 -1 -10 -4 -7 -9 8 l-8 25 -1 -25 c-1 -14 -4 -35 -7 -48 -5 -17 -3 -21 9 -16 14 5 82 142 74 150 -2 2 -16 -15 -30 -37z"/> <path d="M1600 5741 c-5 -11 -10 -34 -10 -51 0 -27 2 -30 19 -20 25 13 54 13 46 0 -3 -5 -15 -10 -25 -10 -29 0 -45 -37 -29 -66 7 -13 18 -24 26 -24 17 0 17 15 -2 30 -19 16 -5 35 30 44 35 9 29 60 -10 99 -21 22 -32 21 -45 -2z"/> <path d="M2273 5717 c-4 -8 -15 -17 -23 -20 -10 -4 -8 -6 6 -6 12 -1 25 6 28 15 8 22 0 30 -11 11z"/> <path d="M1528 5663 c-8 -10 -30 -45 -47 -78 -18 -33 -45 -75 -59 -94 -84 -105 -131 -201 -60 -121 82 94 145 192 171 269 16 46 16 48 -5 24z"/> <path d="M2840 5652 c0 -4 -23 -32 -50 -62 -46 -49 -50 -57 -44 -90 4 -21 21 -51 44 -75 l38 -40 -43 -126 c-23 -70 -46 -132 -49 -138 -4 -6 -3 -11 2 -11 5 0 21 26 35 58 17 35 27 49 28 37 1 -11 0 -24 -1 -30 -2 -5 -11 -41 -22 -80 -10 -38 -21 -79 -22 -90 -2 -11 -7 -28 -11 -38 -4 -10 -3 -23 2 -28 7 -7 4 -31 -9 -71 -10 -34 -17 -66 -14 -72 10 -27 51 101 73 228 52 307 63 372 63 406 0 20 16 69 36 110 l35 75 -28 22 c-27 22 -63 31 -63 15z m30 -59 c0 -28 -27 -97 -39 -101 -6 -2 -11 -13 -11 -25 0 -36 -29 2 -32 42 -2 26 3 37 25 53 15 11 27 26 27 34 0 8 7 14 15 14 8 0 15 -8 15 -17z"/> <path d="M1580 5551 c0 -34 3 -41 20 -41 12 0 20 7 20 16 0 9 -9 27 -20 41 l-20 26 0 -42z"/> <path d="M2197 5526 c-7 -18 17 -28 32 -13 16 16 13 27 -8 27 -10 0 -21 -6 -24 -14z"/> <path d="M2619 5470 c-64 -61 -179 -150 -194 -150 -2 0 -26 -14 -52 -31 -77 -50 -9 -24 87 33 115 69 260 186 260 210 0 22 -34 1 -101 -62z"/> <path d="M1502 5517 c-6 -6 -16 -31 -24 -55 -7 -23 -17 -42 -21 -42 -5 0 -5 -5 -2 -10 10 -16 25 -2 25 23 1 23 32 67 48 67 5 0 13 -10 17 -22 3 -13 9 -18 11 -11 6 13 -23 63 -36 63 -4 0 -12 -6 -18 -13z"/> <path d="M2961 5517 c-2 -21 31 -117 40 -117 11 0 12 15 0 38 -5 9 -16 33 -24 52 -9 19 -16 31 -16 27z"/> <path d="M2156 5496 c3 -9 11 -16 16 -16 13 0 5 23 -10 28 -7 2 -10 -2 -6 -12z"/> <path d="M1585 5453 c-15 -22 -18 -50 -19 -150 -1 -68 2 -123 7 -123 4 0 7 50 7 110 0 76 5 122 15 147 19 45 14 53 -10 16z"/> <path d="M2932 5440 c12 -16 23 -28 26 -26 7 7 -17 43 -33 50 -11 4 -9 -3 7 -24z"/> <path d="M1293 5422 c-15 -10 -24 -60 -12 -67 5 -4 9 1 9 9 0 9 5 16 11 16 5 0 7 5 4 10 -3 6 3 10 14 10 14 0 19 5 15 15 -7 16 -22 19 -41 7z"/> <path d="M2711 5352 c-22 -44 -68 -126 -101 -182 -34 -55 -59 -107 -56 -113 2 -7 5 -4 5 5 1 10 15 30 31 45 17 14 30 30 30 34 0 4 14 28 30 52 17 25 30 48 30 51 0 4 12 24 26 45 25 39 58 130 50 139 -3 2 -23 -32 -45 -76z"/> <path d="M1226 5401 c-3 -5 -23 -11 -43 -14 -21 -3 -58 -10 -83 -15 -64 -14 -255 -52 -257 -52 -2 0 -3 -4 -3 -8 0 -4 42 -2 93 4 150 20 361 15 325 -7 -9 -6 -7 -9 8 -9 17 0 34 17 34 34 0 1 -29 3 -64 4 -60 3 -141 19 -103 21 9 1 18 1 20 0 1 0 14 4 29 10 15 5 28 6 30 1 2 -5 16 2 31 16 25 21 26 24 8 24 -11 0 -22 -4 -25 -9z"/> <path d="M2960 5388 c0 -7 5 -20 10 -28 8 -12 10 -11 10 7 0 12 -4 25 -10 28 -5 3 -10 0 -10 -7z"/> <path d="M3074 5309 c3 -23 9 -46 15 -52 14 -14 15 2 1 37 -7 20 -6 25 8 28 14 3 14 6 -5 16 -22 12 -23 11 -19 -29z"/> <path d="M1360 5275 c-6 -70 -5 -83 5 -73 3 3 5 37 3 74 l-3 69 -5 -70z"/> <path d="M2982 5298 c6 -18 15 -39 21 -45 5 -7 15 -30 23 -50 7 -21 13 -31 14 -22 0 16 -58 149 -65 149 -2 0 1 -15 7 -32z"/> <path d="M3135 5290 c15 -49 24 -68 34 -74 6 -4 8 -13 5 -20 -3 -7 2 -21 11 -29 14 -15 45 -77 45 -92 0 -4 -4 -4 -9 0 -19 11 -20 -13 -1 -30 15 -13 28 -16 56 -11 l36 7 -29 -35 c-33 -43 -68 -47 -119 -15 -42 26 -50 40 -59 107 -4 28 -10 52 -14 52 -5 0 -4 -23 0 -52 5 -28 6 -54 4 -59 -8 -13 63 -68 105 -80 22 -7 40 -14 40 -15 0 -2 -13 -23 -29 -46 -48 -73 -85 -129 -96 -148 -35 -60 -46 -82 -43 -91 3 -8 73 91 104 146 23 42 88 142 122 188 32 42 41 47 77 49 l40 1 -37 4 c-21 2 -38 6 -38 7 0 18 25 66 34 66 14 0 98 -102 143 -175 17 -27 54 -97 82 -155 27 -58 50 -99 51 -92 0 8 -6 28 -14 45 -8 18 -29 70 -47 116 -18 47 -46 100 -62 118 -16 19 -27 37 -23 40 12 12 197 -29 244 -54 67 -35 96 -67 131 -139 17 -35 33 -64 35 -64 10 0 -46 126 -66 147 -53 56 -217 123 -305 123 -57 0 -70 7 -74 40 -3 16 -17 31 -41 44 -21 11 -40 28 -44 38 -3 10 -19 25 -35 33 -30 16 -40 6 -14 -15 19 -16 19 -24 -1 -77 -28 -72 -74 -53 -74 29 0 80 -27 125 -104 174 l-29 18 8 -24z"/> <path d="M870 5260 c-12 -8 -12 -10 5 -11 50 -4 68 -7 88 -16 37 -17 138 -45 144 -39 7 7 -60 35 -122 51 -91 23 -100 24 -115 15z"/> <path d="M673 5253 c-7 -2 -13 -12 -12 -21 0 -11 2 -12 6 -4 2 6 11 12 18 12 8 0 17 5 20 10 6 10 -11 12 -32 3z"/> <path d="M1168 5243 c-9 -10 -19 -34 -22 -53 -7 -35 -7 -35 11 -14 10 11 26 27 35 36 14 13 15 19 5 32 -12 16 -14 16 -29 -1z"/> <path d="M540 5188 c-30 -17 -64 -35 -75 -42 -50 -27 -125 -95 -155 -138 -26 -38 -130 -240 -130 -254 0 -2 -13 -32 -28 -66 -16 -35 -43 -101 -61 -148 -18 -47 -39 -101 -48 -120 -8 -19 -17 -60 -20 -90 -5 -50 -4 -54 11 -40 9 9 17 28 18 43 1 15 6 27 9 27 4 0 15 26 24 58 33 117 70 217 87 232 9 8 22 35 28 60 7 25 18 52 25 60 7 8 16 26 20 40 13 44 57 140 65 140 10 0 7 -26 -3 -36 -4 -4 -7 -19 -6 -33 l1 -26 14 30 c7 17 13 41 13 55 -1 14 -1 32 0 41 1 19 54 79 69 79 6 0 16 8 21 18 6 11 47 43 93 72 46 30 85 55 87 57 2 2 2 5 0 7 -3 3 -29 -9 -59 -26z"/> <path d="M3040 5148 c0 -9 7 -22 17 -29 15 -13 15 -12 3 11 -17 34 -20 36 -20 18z"/> <path d="M2864 5118 c10 -15 34 -39 54 -54 20 -15 52 -41 71 -58 27 -25 31 -27 22 -9 -6 12 -18 26 -25 30 -8 4 -34 26 -58 48 -24 22 -52 47 -62 55 -19 15 -19 14 -2 -12z"/> <path d="M925 5110 c12 -13 22 -17 28 -11 13 13 -1 31 -25 31 -21 0 -21 -1 -3 -20z"/> <path d="M716 5061 c-19 -21 -14 -41 10 -41 9 0 14 -11 15 -32 1 -32 2 -32 9 7 9 41 4 85 -10 85 -4 0 -15 -9 -24 -19z"/> <path d="M1209 5066 c-3 -3 -26 -6 -52 -7 -51 -3 -76 -12 -59 -23 5 -3 33 -1 62 4 51 10 121 5 150 -11 8 -4 15 -22 16 -39 2 -38 26 -73 74 -109 26 -19 31 -21 20 -6 -8 10 -26 29 -40 41 -21 19 -25 31 -25 78 0 53 -2 56 -29 66 -29 10 -109 14 -117 6z"/> <path d="M1436 5035 c-3 -8 -2 -15 3 -15 5 0 14 7 21 15 10 12 10 15 -3 15 -8 0 -17 -7 -21 -15z"/> <path d="M1557 4996 c-8 -57 -3 -69 14 -33 8 17 8 34 2 53 -9 28 -10 27 -16 -20z"/> <path d="M515 4967 c2 -37 9 -75 14 -85 14 -24 13 -4 -4 83 l-14 70 4 -68z"/> <path d="M3632 4950 c62 -82 67 -86 68 -65 1 19 1 19 11 2 6 -10 8 -24 6 -31 -3 -7 3 -19 13 -26 15 -11 16 -18 8 -39 -9 -23 -15 -70 -33 -261 -5 -50 -30 -172 -55 -275 -6 -22 -12 -49 -15 -60 -4 -22 -51 -236 -60 -275 -7 -33 17 35 50 140 14 46 29 103 32 127 3 23 12 44 20 47 8 3 11 11 8 17 -4 5 3 54 14 107 12 53 28 126 36 162 8 36 16 103 19 150 2 47 10 105 16 130 11 42 10 48 -15 93 -15 26 -33 47 -41 47 -8 0 -24 9 -36 20 -12 11 -33 20 -46 20 l-24 0 24 -30z"/> <path d="M2460 4931 c-7 -15 -7 -21 0 -21 12 0 25 28 17 36 -3 3 -10 -4 -17 -15z"/> <path d="M2634 4900 c-20 -27 -41 -50 -48 -50 -14 0 -141 -74 -169 -98 -11 -10 -14 -19 -8 -25 6 -6 24 2 49 22 22 17 43 31 48 31 4 0 17 8 28 19 12 10 31 22 44 26 19 5 22 3 23 -22 0 -27 1 -27 13 7 8 20 25 59 40 88 14 29 24 52 21 52 -3 0 -21 -22 -41 -50z"/> <path d="M3910 4930 c-12 -8 -12 -10 3 -16 21 -8 35 2 21 16 -5 5 -15 6 -24 0z"/> <path d="M3985 4931 c-8 -14 65 -73 82 -66 9 3 22 0 29 -6 14 -11 34 -5 34 11 0 5 -7 7 -16 3 -9 -3 -19 -1 -23 4 -11 18 -100 63 -106 54z"/> <path d="M1556 4914 c-4 -10 -1 -14 6 -12 15 5 23 28 10 28 -5 0 -13 -7 -16 -16z"/> <path d="M3410 4910 c0 -6 7 -27 15 -46 8 -19 14 -40 12 -46 -1 -7 9 -12 23 -12 23 0 25 3 22 38 -2 21 -11 46 -20 57 -17 20 -52 26 -52 9z"/> <path d="M1584 4893 c15 -55 18 -63 26 -63 5 0 8 6 6 13 -3 6 -7 24 -10 40 -4 15 -11 27 -17 27 -6 0 -8 -8 -5 -17z"/> <path d="M3958 4872 c-29 -3 -39 -22 -13 -22 8 0 14 -5 13 -11 -6 -25 20 -18 26 7 8 31 9 30 -26 26z"/> <path d="M4152 4835 c-15 -33 -15 -35 4 -35 8 0 12 5 9 10 -3 6 -2 10 3 10 5 0 12 9 15 20 8 29 -18 25 -31 -5z"/> <path d="M4044 4842 c-12 -7 -38 -53 -32 -55 2 -1 12 -7 23 -13 22 -12 48 -7 39 7 -3 5 -14 9 -25 9 -23 0 -24 4 -3 35 17 26 17 30 -2 17z"/> <path d="M2686 4805 c-9 -14 -12 -25 -7 -25 12 0 35 39 28 46 -2 3 -12 -7 -21 -21z"/> <path d="M1620 4805 c0 -8 4 -23 9 -33 5 -9 20 -44 32 -76 13 -33 24 -55 26 -49 4 11 -55 173 -63 173 -2 0 -4 -7 -4 -15z"/> <path d="M1506 4792 c52 -45 85 -62 101 -53 14 8 11 12 -21 25 -21 9 -42 16 -47 16 -5 0 -9 5 -9 10 0 6 -8 10 -17 10 -10 0 -13 -3 -7 -8z"/> <path d="M4088 4745 c-38 -44 -36 -56 10 -55 13 1 11 4 -6 13 l-22 13 26 23 c29 25 91 32 104 11 4 -7 12 -11 18 -9 22 8 -14 36 -53 41 -38 5 -43 3 -77 -37z"/> <path d="M2727 4766 c-13 -10 -18 -29 -19 -65 -1 -41 -7 -57 -26 -76 -19 -19 -21 -25 -9 -25 21 0 57 47 57 74 0 39 12 64 32 69 47 13 197 -57 227 -105 9 -15 8 -24 -5 -48 -10 -16 -25 -31 -33 -34 -9 -3 -35 -21 -58 -40 -23 -19 -48 -36 -55 -39 -7 -2 -10 -8 -6 -12 4 -4 27 9 52 29 24 20 47 36 51 36 4 0 -3 -16 -16 -36 -12 -20 -17 -35 -11 -33 13 5 142 159 142 170 0 20 -75 80 -141 113 -78 39 -148 47 -182 22z"/> <path d="M3690 4731 c0 -28 -4 -52 -9 -55 -4 -3 -12 -33 -15 -67 -7 -63 -37 -139 -62 -160 -15 -13 -20 -34 -5 -25 24 15 71 102 71 132 0 23 4 32 13 29 9 -4 13 13 14 62 1 38 5 83 8 101 4 19 2 32 -5 32 -5 0 -10 -22 -10 -49z"/> <path d="M4256 4677 c-4 -43 -6 -81 -3 -84 7 -6 20 119 15 143 -2 10 -8 -16 -12 -59z"/> <path d="M2330 4685 c-30 -25 -82 -77 -115 -116 -33 -39 -83 -97 -111 -128 -44 -49 -224 -309 -224 -324 0 -9 -121 -207 -130 -212 -9 -6 -2 22 24 94 9 24 14 46 12 49 -16 15 -116 -322 -116 -390 0 -5 4 -7 9 -4 5 3 17 38 26 78 22 90 57 160 129 261 31 42 56 84 56 92 0 8 9 20 19 27 10 6 17 17 14 23 -7 19 25 45 45 38 15 -6 15 -4 4 9 -11 14 -9 23 14 60 14 24 35 53 46 64 11 12 27 37 36 55 16 31 140 127 227 175 17 9 53 33 80 53 44 33 141 91 151 91 2 0 4 -7 4 -15 0 -8 3 -15 6 -15 7 0 43 42 44 52 1 24 -155 -50 -274 -130 -113 -76 -146 -96 -146 -86 0 4 53 60 117 126 64 65 115 118 112 118 -2 0 -29 -20 -59 -45z"/> <path d="M2660 4721 c0 -14 -45 -61 -57 -61 -6 0 -16 -7 -23 -15 -18 -22 -1 -17 50 14 42 25 68 71 41 71 -6 0 -11 -4 -11 -9z"/> <path d="M4290 4694 c0 -22 64 -84 86 -84 13 0 5 13 -31 50 -27 28 -51 50 -52 50 -2 0 -3 -7 -3 -16z"/> <path d="M4020 4677 c-24 -19 -70 -77 -70 -89 0 -6 9 0 20 13 11 13 32 36 47 52 27 28 29 44 3 24z"/> <path d="M2617 4605 c-26 -25 -47 -49 -47 -55 0 -21 77 34 88 64 7 16 11 31 9 32 -1 2 -24 -17 -50 -41z"/> <path d="M2510 4626 c-6 -8 -10 -24 -8 -34 2 -16 6 -14 20 14 18 34 11 46 -12 20z"/> <path d="M1673 4597 c64 -100 103 -333 79 -472 -6 -34 -11 -40 -34 -43 -15 -2 -32 -10 -40 -19 -11 -14 -8 -15 32 -8 25 4 50 11 56 16 17 13 25 221 13 303 -16 101 -63 218 -95 233 -25 11 -25 11 -11 -10z"/> <path d="M3160 4609 c0 -6 6 -20 12 -32 7 -12 13 -31 13 -41 0 -26 22 -32 29 -8 8 24 -23 92 -41 92 -7 0 -13 -5 -13 -11z"/> <path d="M4152 4608 c3 -7 13 -15 24 -17 16 -3 17 -1 5 13 -16 19 -34 21 -29 4z"/> <path d="M4077 4582 c-28 -13 -45 -38 -34 -48 8 -8 47 19 47 33 0 6 6 13 13 16 6 2 10 6 7 9 -3 2 -18 -2 -33 -10z"/> <path d="M163 4540 c0 -25 2 -35 4 -22 2 12 2 32 0 45 -2 12 -4 2 -4 -23z"/> <path d="M3830 4523 c0 -7 35 -27 70 -40 8 -3 3 6 -12 21 -26 24 -58 35 -58 19z"/> <path d="M4003 4516 c-33 -16 -31 -38 2 -23 14 7 25 18 25 25 0 6 -1 11 -2 11 -2 -1 -13 -6 -25 -13z"/> <path d="M2513 4495 c-9 -24 1 -27 15 -5 8 13 8 20 2 20 -6 0 -13 -7 -17 -15z"/> <path d="M4210 4500 c0 -7 -9 -23 -20 -37 -24 -31 -27 -51 -3 -27 26 26 43 63 32 69 -5 4 -9 1 -9 -5z"/> <path d="M4456 4481 c-16 -6 -20 -18 -20 -63 -1 -45 1 -52 11 -39 7 9 13 21 13 27 0 6 9 23 20 37 33 42 23 57 -24 38z"/> <path d="M2271 4454 c-6 -15 -9 -29 -7 -32 3 -2 10 8 16 23 14 36 7 43 -9 9z"/> <path d="M3812 4463 c3 -19 48 -32 48 -14 0 10 -31 31 -45 31 -4 0 -5 -8 -3 -17z"/> <path d="M4066 4424 c15 -80 31 -128 43 -132 11 -4 12 1 7 19 -9 29 -23 85 -31 122 -8 42 -27 33 -19 -9z"/> <path d="M3013 4443 c-16 -6 -17 -46 -1 -41 12 4 32 48 20 47 -4 0 -13 -3 -19 -6z"/> <path d="M2750 4408 c-16 -15 -19 -23 -11 -26 7 -2 24 7 38 22 30 32 7 36 -27 4z"/> <path d="M3790 4404 c0 -15 25 -25 45 -18 24 10 17 21 -15 26 -19 3 -30 0 -30 -8z"/> <path d="M3430 4395 c-10 -12 -10 -18 0 -30 7 -8 17 -15 23 -15 7 0 7 4 -1 12 -14 14 -16 42 -2 33 6 -3 10 -1 10 4 0 16 -16 13 -30 -4z"/> <path d="M3573 4388 c-11 -16 -43 -98 -37 -98 4 0 31 51 44 85 10 27 8 32 -7 13z"/> <path d="M4484 4354 c-3 -19 -2 -45 4 -57 9 -18 11 -12 11 36 1 65 -5 74 -15 21z"/> <path d="M3850 4360 c-1 -3 -4 -16 -6 -30 -3 -18 -2 -22 7 -13 6 6 9 19 6 29 -3 11 -6 17 -7 14z"/> <path d="M3080 4327 c0 -9 11 -29 25 -44 14 -15 23 -21 19 -12 -3 10 -2 19 3 22 10 7 45 -18 41 -29 -4 -16 22 -54 37 -54 17 0 20 16 5 25 -5 3 -10 11 -10 16 0 6 4 7 10 4 28 -17 -6 24 -39 47 -49 35 -91 46 -91 25z"/> <path d="M4020 4311 c0 -12 51 -53 58 -46 7 6 -17 34 -40 46 -11 6 -18 6 -18 0z"/> <path d="M3765 4300 c-3 -5 -2 -10 4 -10 5 0 17 -3 25 -6 12 -5 15 -2 10 10 -7 18 -29 21 -39 6z"/> <path d="M2421 4249 c-18 -27 -60 -71 -94 -97 -33 -26 -76 -62 -96 -81 l-36 -33 35 21 c120 73 139 87 140 99 0 7 4 11 9 8 14 -9 41 4 41 20 0 8 4 22 9 32 10 20 30 82 27 82 -2 0 -17 -23 -35 -51z"/> <path d="M2985 4280 c-9 -15 -23 -120 -16 -120 4 0 12 14 18 31 13 34 29 31 43 -7 5 -13 17 -24 25 -24 13 0 10 12 -16 58 -40 70 -45 77 -54 62z"/> <path d="M4400 4269 c0 -48 -190 -306 -214 -292 -6 3 -8 3 -4 -2 14 -15 -23 -66 -112 -155 -62 -61 -232 -218 -247 -229 -5 -3 -28 -37 -51 -76 -22 -38 -50 -85 -61 -103 -14 -23 -23 -57 -26 -105 l-5 -72 19 70 c55 202 134 300 383 476 57 40 128 96 159 125 49 46 53 53 37 63 -18 11 -34 -1 -23 -19 6 -9 -82 -99 -97 -100 -7 0 61 105 92 142 8 10 20 18 27 18 15 0 63 47 63 61 0 6 5 7 12 3 8 -5 9 0 5 15 -3 12 0 27 7 34 6 6 21 30 32 52 12 23 29 41 41 43 17 3 20 -4 22 -50 1 -29 6 -68 12 -86 14 -42 5 -52 -20 -21 -11 13 -22 21 -26 18 -3 -4 7 -21 24 -38 17 -18 31 -40 31 -50 0 -27 -57 -73 -115 -95 -28 -11 -61 -27 -75 -36 -14 -9 -59 -36 -101 -58 -42 -23 -82 -49 -89 -57 -7 -8 -18 -15 -25 -15 -17 0 -65 -43 -65 -58 0 -17 10 -15 29 6 18 19 50 38 87 52 22 9 24 8 21 -15 -3 -26 -17 -47 -17 -25 0 17 -13 4 -16 -15 -2 -11 9 -8 39 11 23 14 54 33 69 42 20 12 28 25 28 45 0 29 4 31 35 17 19 -8 19 -9 -2 -9 -13 -1 -23 -5 -23 -11 0 -14 12 -13 35 4 19 13 151 56 173 56 7 0 11 -24 11 -62 0 -35 0 -78 0 -97 0 -19 -4 -40 -11 -48 -8 -10 -8 -20 1 -39 15 -33 15 -77 -1 -68 -7 5 -8 3 -3 -6 5 -7 12 -31 16 -53 5 -32 3 -44 -12 -60 -10 -12 -19 -16 -19 -9 0 6 -12 15 -27 18 -16 4 -32 10 -38 14 -9 7 -70 22 -199 50 -56 11 -156 5 -190 -13 -16 -9 -36 -13 -45 -9 -14 5 -14 4 -2 -12 12 -15 28 -16 110 -12 114 5 274 -10 312 -30 16 -8 37 -14 49 -14 11 0 20 -7 20 -15 0 -8 6 -15 13 -15 7 0 14 -11 15 -26 1 -14 8 -35 14 -47 11 -18 13 69 16 468 l2 489 -22 23 c-13 12 -35 25 -50 28 -25 6 -28 4 -28 -16z m60 -386 c0 -15 -34 -43 -52 -43 -11 0 -17 -4 -14 -8 2 -4 -3 -8 -12 -8 -9 -1 -25 -5 -36 -9 -14 -6 -18 -5 -14 6 2 8 28 26 58 42 55 28 70 32 70 20z m-240 -133 c0 -5 -3 -10 -7 -10 -5 0 -18 -3 -30 -6 -13 -4 -23 -2 -23 4 0 10 19 18 48 21 6 0 12 -3 12 -9z"/> <path d="M3246 4246 c3 -9 12 -16 19 -16 7 0 36 -16 64 -35 28 -19 53 -35 56 -35 6 0 -39 52 -69 81 -22 21 -46 25 -46 8 0 -8 -5 -7 -15 1 -13 11 -14 10 -9 -4z"/> <path d="M3685 4178 c9 -54 12 -58 36 -58 11 0 17 -5 14 -10 -4 -6 -11 -8 -16 -5 -11 8 -11 -5 2 -84 5 -35 15 -73 22 -85 11 -21 13 -27 16 -47 0 -5 6 -7 11 -4 6 3 10 -2 10 -13 0 -32 102 -71 168 -64 28 2 57 11 63 18 9 10 6 12 -13 8 -63 -15 -161 11 -185 48 -4 7 -10 54 -13 103 l-6 90 -8 -82 c-10 -94 -31 -105 -24 -12 3 36 0 57 -6 56 -10 -2 -17 51 -9 66 3 4 11 3 19 -4 11 -9 14 -7 14 10 0 17 -6 21 -30 21 -24 0 -33 6 -41 28 -6 15 -11 35 -12 45 -1 9 -5 17 -10 17 -5 0 -6 -19 -2 -42z"/> <path d="M3742 4188 c7 -20 48 -23 48 -4 0 11 -9 16 -26 16 -16 0 -24 -5 -22 -12z"/> <path d="M4105 4162 c-22 -22 11 -29 40 -8 18 13 17 14 -8 14 -14 0 -29 -3 -32 -6z"/> <path d="M4154 4145 c-21 -32 -8 -47 15 -18 13 15 21 19 29 11 16 -16 36 0 21 18 -18 22 -47 17 -65 -11z"/> <path d="M327 4075 c3 -44 7 -82 9 -84 7 -8 2 104 -6 134 -5 18 -6 -3 -3 -50z"/> <path d="M3114 4138 c-7 -11 -8 -10 39 -32 21 -10 43 -15 50 -13 7 2 20 0 30 -5 11 -5 17 -5 17 2 0 5 -7 10 -15 10 -7 0 -18 6 -22 13 -11 17 -92 37 -99 25z"/> <path d="M4073 4119 c-16 -21 -12 -48 6 -41 26 9 41 23 41 39 0 12 -3 13 -14 4 -11 -9 -15 -9 -18 0 -3 8 -7 7 -15 -2z"/> <path d="M3650 4047 c0 -32 16 -44 23 -17 3 10 -1 24 -9 31 -11 9 -14 7 -14 -14z"/> <path d="M2100 3983 c-47 -29 -107 -65 -135 -80 -48 -25 -185 -157 -185 -178 1 -5 20 12 44 38 40 44 125 107 145 107 5 0 14 6 20 14 7 8 42 33 79 55 73 44 129 88 122 94 -3 3 -43 -20 -90 -50z"/> <path d="M2652 3958 c-7 -52 -7 -87 -1 -92 5 -6 9 -8 10 -5 4 25 10 179 6 179 -2 0 -9 -37 -15 -82z"/> <path d="M2004 4005 c-17 -13 -17 -14 -2 -15 9 0 20 5 23 11 11 17 0 20 -21 4z"/> <path d="M3940 3980 c-8 -5 -11 -12 -7 -16 4 -4 15 0 24 9 18 18 8 23 -17 7z"/> <path d="M335 3948 c5 -23 11 -81 40 -398 14 -149 32 -252 34 -195 1 24 -24 277 -44 455 -8 69 -15 133 -15 142 0 10 -5 18 -10 18 -6 0 -8 -10 -5 -22z"/> <path d="M3650 3959 c0 -8 7 -24 15 -35 11 -14 14 -15 14 -4 0 8 -6 24 -14 34 -11 15 -15 16 -15 5z"/> <path d="M3710 3897 c0 -5 9 -20 20 -34 11 -14 20 -21 20 -15 0 12 -39 60 -40 49z"/> <path d="M2628 3803 c-2 -73 3 -148 13 -157 5 -6 9 29 9 92 0 61 -4 102 -10 102 -5 0 -11 -17 -12 -37z"/> <path d="M3950 3640 c0 -13 11 -13 30 0 12 8 11 10 -7 10 -13 0 -23 -4 -23 -10z"/> <path d="M1671 3610 c0 -33 1 -34 10 -11 6 16 6 28 -1 35 -7 7 -10 -1 -9 -24z"/> <path d="M3870 3341 c-22 -6 -18 -9 25 -16 28 -5 56 -9 64 -8 8 1 26 -4 40 -10 14 -6 51 -12 81 -14 89 -6 88 -6 82 -23 -5 -12 -3 -13 10 -2 17 14 44 7 51 -12 4 -9 24 -13 60 -12 31 1 53 -2 51 -6 -3 -4 7 -10 21 -14 13 -3 23 -10 20 -14 -5 -9 38 -28 75 -32 32 -4 42 -54 13 -65 -24 -9 -68 -43 -57 -44 5 -1 17 0 27 1 10 1 25 -7 33 -17 16 -21 19 -99 4 -108 -14 -8 -88 35 -95 54 -5 17 -55 45 -55 31 0 -4 -10 -6 -22 -6 -25 2 -48 -11 -48 -26 0 -5 15 -8 33 -7 50 3 77 0 76 -8 -4 -24 6 -34 55 -58 56 -28 56 -27 73 -122 5 -31 3 -33 -24 -33 -17 0 -33 8 -41 20 -7 11 -18 20 -25 20 -8 0 -31 13 -53 30 -21 16 -44 30 -50 30 -7 0 -27 14 -44 30 -37 34 -53 34 -58 0 -3 -19 0 -22 17 -17 12 3 19 0 18 -6 -1 -6 8 -13 21 -15 12 -2 22 -7 22 -12 0 -5 10 -12 22 -16 20 -6 31 -13 63 -41 7 -7 17 -13 20 -13 4 0 25 -14 47 -31 29 -23 36 -35 28 -43 -8 -8 -112 -10 -356 -8 l-346 3 -33 34 c-37 40 -53 39 -94 -7 l-26 -28 -976 -2 c-536 -1 -981 2 -987 6 -7 4 -13 26 -13 49 -2 32 -3 35 -6 12 -2 -16 -5 -39 -8 -50 -4 -20 -12 -20 -560 -20 -602 0 -570 -3 -540 55 20 38 14 66 -17 93 -23 20 -27 34 -37 126 -6 58 -14 107 -16 110 -12 11 -14 -8 -5 -39 6 -19 11 -66 12 -104 2 -67 1 -70 -33 -99 -44 -39 -99 -90 -124 -117 -18 -19 -29 -21 -140 -20 -66 1 -126 1 -132 1 -7 -1 -13 -10 -13 -21 0 -19 7 -20 165 -20 l165 0 0 34 c0 29 8 39 60 80 33 26 60 52 60 57 0 5 7 9 15 9 11 0 15 -11 15 -40 0 -40 -16 -75 -54 -117 l-19 -23 1615 0 1616 0 5 28 c14 63 47 68 47 6 l0 -34 405 0 405 0 0 291 0 290 -21 -6 c-20 -7 -91 10 -114 26 -10 7 -39 10 -99 11 -17 0 -39 9 -50 19 -11 11 -31 19 -45 19 -14 0 -46 7 -70 15 -40 14 -44 14 -56 -1 -11 -16 -13 -16 -24 4 -10 19 -20 22 -69 21 -31 -1 -68 -4 -82 -8z"/> <path d="M404 3298 c3 -13 6 -34 6 -48 0 -16 3 -21 8 -13 11 17 2 83 -10 83 -6 0 -8 -10 -4 -22z"/> <path d="M1651 3216 c-13 -54 -15 -104 -2 -90 10 10 26 134 18 134 -2 0 -10 -20 -16 -44z"/> <path d="M1488 3233 c-27 -33 -32 -48 -6 -25 43 39 78 23 78 -37 0 -22 -8 -43 -22 -58 -17 -18 -18 -23 -6 -23 22 0 35 19 43 61 14 73 -46 129 -87 82z"/> <path d="M1461 3147 c-1 -28 18 -57 36 -57 16 0 16 1 0 13 -9 6 -21 23 -26 37 -7 18 -10 20 -10 7z"/> <path d="M111 3134 c-12 -14 -10 -15 10 -12 12 1 24 9 27 16 5 17 -20 14 -37 -4z"/> <path d="M413 3134 c-18 -18 -16 -24 7 -24 11 0 20 6 20 14 0 21 -13 26 -27 10z"/> <path d="M4125 3093 c-23 -6 -44 -23 -29 -24 85 -4 106 -4 117 3 9 5 9 10 0 19 -8 8 -17 8 -33 -1 -15 -8 -20 -8 -16 -1 7 11 -4 12 -39 4z"/> <path d="M3957 3009 c5 -5 32 -16 59 -24 74 -20 118 -39 127 -52 14 -22 37 -15 37 12 0 21 -5 25 -27 25 -16 0 -37 7 -47 15 -11 8 -41 15 -67 15 -26 0 -51 5 -54 10 -3 6 -14 10 -23 10 -11 0 -13 -3 -5 -11z"/> <path d="M1631 2925 c1 -48 1 -49 9 -15 5 19 4 41 0 50 -6 10 -9 -1 -9 -35z"/> <path d="M1620 2836 c0 -20 2 -36 4 -36 8 0 12 61 4 66 -4 3 -8 -11 -8 -30z"/> </g> </svg> 